<svg id="Capa_1" enable-background="new 0 0 520 520" height="512" viewBox="0 0 520 520" width="512" xmlns="http://www.w3.org/2000/svg"><g><path d="m430 45h-219.002c-5.428 0-10.433 2.933-13.086 7.669-2.653 4.735-2.541 10.535.294 15.165l48.992 80c2.727 4.452 7.571 7.166 12.792 7.166h200.01c8.284 0 15-6.716 15-15v-50c0-24.813-20.187-45-45-45z" fill="#ffb300"/><path d="m475 125.016h-206.597l-56.861-92.85c-2.727-4.452-7.571-7.166-12.792-7.166h-153.75c-24.813 0-45 20.187-45 45v380c0 24.813 20.187 45 45 45h430c24.813 0 45-20.187 45-45v-279.984c0-24.814-20.187-45-45-45z" fill="#fdd835"/><path d="m355.888 294.012c-2.813-2.813-6.628-4.394-10.607-4.394l-40.182.001v-40.183c0-8.284-6.716-15-15-15h-60.199c-8.284 0-15 6.716-15 15v40.182h-40.182c-8.284 0-15 6.716-15 15v60.199c0 8.284 6.716 15 15 15h40.183v40.183c0 3.979 1.58 7.793 4.394 10.606 2.813 2.813 6.628 4.394 10.606 4.394h60.199c8.284 0 15-6.716 15-15v-40.183h40.182c8.284 0 15-6.716 15-15v-60.199c0-3.978-1.581-7.794-4.394-10.606z" fill="#64b5f6"/><path d="m430 45h-170v110h200c8.284 0 15-6.716 15-15v-50c0-24.813-20.187-45-45-45z" fill="#ff8f00"/><path d="m475 125.016h-206.597l-8.403-13.722v383.706h215c24.813 0 45-20.187 45-45v-279.984c0-24.814-20.187-45-45-45z" fill="#fbc02d"/><path d="m355.888 294.012c-2.813-2.813-6.628-4.394-10.607-4.394l-40.182.001v-40.183c0-8.284-6.716-15-15-15h-30.099v200.564h30.1c8.284 0 15-6.716 15-15v-40.183h40.182c8.284 0 15-6.716 15-15v-60.199c0-3.978-1.581-7.794-4.394-10.606z" fill="#1e88e5"/></g></svg>