<svg height="512" viewBox="0 0 58 58" width="512" xmlns="http://www.w3.org/2000/svg"><g id="Page-1" fill="none" fill-rule="evenodd"><g id="043---Open-Folder" fill-rule="nonzero"><path id="Shape" d="m48 16v-4c0-2.209139-1.790861-4-4-4h-18.78c-1.3808754-.00161879-2.664426-.71134674-3.4-1.88l-2.64-4.24c-.735574-1.16865326-2.0191246-1.87838121-3.4-1.88h-11.78c-2.209139 0-4 1.790861-4 4v50c-.00253809.4543259.07882556.9052162.24 1.33.55572211 1.6007497 2.06553304 2.672876 3.76 2.67h2z" fill="#f0c419"/><g fill="#f29c1f"><path id="Shape" d="m53.83 21.13-.98 2.87-11.61 34h-37.24c-1.69446696.002876-3.20427789-1.0692503-3.76-2.67l12.26-36.46c.5014383-1.7027039 2.064996-2.8713004 3.84-2.87h33.66c1.2596184.0022255 2.4446066.5976507 3.1981733 1.6069973.7535668 1.0093466.9876714 2.3146906.6318267 3.5230027z"/><path id="Shape" d="m4 7c-.55228475 0-1-.44771525-1-1v-2c0-.55228475.44771525-1 1-1s1 .44771525 1 1v2c0 .55228475-.44771525 1-1 1z"/><path id="Shape" d="m8 7c-.55228475 0-1-.44771525-1-1v-2c0-.55228475.44771525-1 1-1s1 .44771525 1 1v2c0 .55228475-.44771525 1-1 1z"/><path id="Shape" d="m12 7c-.5522847 0-1-.44771525-1-1v-2c0-.55228475.4477153-1 1-1s1 .44771525 1 1v2c0 .55228475-.4477153 1-1 1z"/><path id="Shape" d="m16 7c-.5522847 0-1-.44771525-1-1v-2c0-.55228475.4477153-1 1-1s1 .44771525 1 1v2c0 .55228475-.4477153 1-1 1z"/></g><path id="Shape" d="m57.83 29.13-8.91 26.16c-.5495606 1.6196681-2.0696371 2.7094584-3.78 2.71h-39.14l2.7-8 7.8-23.13c.5014383-1.7027039 2.064996-2.8713004 3.84-2.87h33.66c1.2596184.0022255 2.4446066.5976507 3.1981733 1.6069973.7535668 1.0093466.9876714 2.3146906.6318267 3.5230027z" fill="#f0c419"/><path id="Shape" d="m23 29h-2c-.5522847 0-1-.4477153-1-1s.4477153-1 1-1h2c.5522847 0 1 .4477153 1 1s-.4477153 1-1 1z" fill="#f9eab0"/><path id="Shape" d="m45 29h-17c-.5522847 0-1-.4477153-1-1s.4477153-1 1-1h17c.5522847 0 1 .4477153 1 1s-.4477153 1-1 1z" fill="#f9eab0"/><path id="Shape" d="m44.046 36.75-12.83-14.365c-.2200612-.2433723-.2758759-.593635-.1423564-.8933508.1335196-.2997158.4312462-.4924804.7593564-.4916492h6.167c0-18.362-13-21-13-21 28 0 27 21 27 21h5.166c.3278713-.0003356.6252136.1923716.758816.4917879.1336023.2994163.0784235.6494218-.140816.8932121l-12.536 14.365c-.1591412.1598727-.3754225.2497501-.601.2497501s-.4418588-.0898774-.601-.2497501z" fill="#26b99a"/></g></g></svg>